<?xml version="1.0" standalone="no"?>
<!DOCTYPE svg PUBLIC "-//W3C//DTD SVG 20010904//EN"
 "http://www.w3.org/TR/2001/REC-SVG-20010904/DTD/svg10.dtd">
<svg version="1.0" xmlns="http://www.w3.org/2000/svg"
 width="2000.000000pt" height="2000.000000pt" viewBox="0 0 2000.000000 2000.000000"
 preserveAspectRatio="xMidYMid meet">

<g transform="translate(0.000000,2000.000000) scale(0.100000,-0.100000)"
fill="#000000" stroke="none">
<path d="M9700 13414 c-116 -10 -306 -38 -415 -61 -879 -183 -1662 -787 -2065
-1592 -195 -391 -294 -755 -322 -1192 -22 -335 29 -777 121 -1044 23 -66 22
-60 -15 100 -48 207 -66 356 -71 603 -8 325 16 552 87 832 137 541 405 1014
800 1411 255 256 499 434 812 591 388 195 799 300 1263 323 259 13 655 -32
894 -101 29 -8 55 -13 57 -11 14 14 -344 97 -530 123 -106 14 -517 27 -616 18z"/>
<path d="M10890 13089 c0 -6 -11 -24 -25 -41 -14 -16 -25 -35 -25 -42 0 -11
-83 -90 -137 -131 -14 -11 -44 -115 -37 -127 10 -16 -25 -7 -106 28 -67 29
-88 34 -113 27 -79 -22 -88 -119 -15 -158 34 -18 38 -24 38 -58 0 -20 -18
-118 -40 -217 -22 -99 -40 -182 -40 -184 0 -2 -19 -6 -42 -9 -59 -8 -92 -46
-84 -96 5 -33 17 -48 59 -76 8 -5 18 -27 21 -47 l7 -38 -144 0 c-141 0 -144 0
-190 -30 -64 -40 -132 -136 -159 -224 -45 -142 -22 -388 47 -501 12 -21 132
-159 266 -306 l244 -267 67 -1 68 -1 -20 50 c-11 28 -20 53 -20 55 0 3 26 5
58 5 l58 0 27 -55 27 -55 70 0 70 0 -20 50 c-11 28 -20 53 -20 55 0 3 24 5 54
5 l55 0 25 -55 25 -55 50 0 c28 0 51 2 51 5 0 3 -9 23 -20 45 -11 22 -20 44
-20 50 0 5 22 10 49 10 47 0 49 -1 85 -55 l36 -55 80 0 c44 0 80 4 80 9 0 5
-24 67 -54 138 l-54 128 25 479 25 479 -54 48 c-50 46 -56 48 -112 49 l-58 0
6 33 c4 17 9 49 12 69 6 34 28 55 252 245 135 114 259 220 276 235 l31 26 44
-46 c24 -26 107 -112 185 -192 515 -528 616 -640 675 -743 l31 -54 0 -272 0
-271 -25 0 -25 0 0 -436 0 -436 -70 -126 -71 -126 65 -306 c35 -168 68 -322
71 -342 4 -21 10 -38 14 -38 17 0 191 453 191 499 0 6 -7 11 -15 11 -13 0 -15
31 -15 215 l0 216 48 82 47 82 5 -105 5 -105 8 90 c4 50 10 111 13 138 l5 47
-66 0 -65 0 0 315 c0 273 -2 315 -15 315 -13 0 -15 24 -14 158 l1 157 44 -125
c49 -141 48 -114 -3 65 -125 441 -379 874 -707 1209 -155 159 -363 328 -518
422 -60 37 -61 37 -77 17 -40 -50 -164 -193 -167 -193 -2 0 -29 11 -60 25
l-56 25 44 54 c23 29 65 79 93 111 46 54 48 58 31 71 -11 7 -23 11 -28 8 -5
-3 -50 -54 -100 -112 -50 -59 -96 -106 -102 -104 -6 2 -55 21 -109 44 l-98 42
48 48 c37 38 54 48 79 48 25 0 45 12 88 51 31 28 54 55 51 59 -3 5 -21 14 -41
20 -32 11 -39 10 -63 -8 -19 -13 -37 -18 -57 -15 l-29 5 23 -17 c12 -9 22 -22
22 -30 0 -12 -130 -136 -151 -143 -5 -2 -13 7 -18 19 -7 20 0 30 50 72 32 28
55 55 53 62 -3 7 8 29 25 48 35 39 38 52 15 61 -24 9 -44 7 -44 -5z m167 -556
c24 -10 43 -22 43 -26 0 -5 -50 -68 -111 -140 -62 -73 -116 -144 -121 -159 -9
-26 -14 -28 -60 -28 l-51 0 7 62 c8 63 12 72 81 150 31 34 49 46 79 51 49 8
76 33 79 75 1 18 4 32 7 32 3 0 24 -8 47 -17z m-240 -56 l22 -12 -29 -35 c-16
-19 -31 -33 -34 -30 -7 7 5 90 13 90 3 -1 16 -6 28 -13z m-183 -73 c10 -25 7
-106 -5 -167 l-12 -57 -47 0 -46 0 6 48 c10 75 58 192 80 192 10 0 21 -7 24
-16z m-61 -401 c2 -5 2 -25 0 -45 l-5 -38 -60 0 c-51 0 -59 2 -54 16 3 9 6 29
6 45 0 28 1 29 54 29 30 0 57 -3 59 -7z"/>
<path d="M8190 11990 l0 -680 -495 0 -495 0 0 -941 0 -942 36 -90 c20 -49 53
-126 75 -171 l39 -81 0 83 0 82 60 0 60 0 0 -100 0 -100 -51 0 -51 0 37 -67
c208 -380 549 -746 930 -1000 141 -93 198 -123 239 -123 l36 0 0 476 0 475
-26 -20 c-15 -12 -40 -21 -55 -21 l-29 0 0 -105 0 -105 -85 0 -85 0 0 105 0
105 -144 0 c-156 0 -181 8 -174 54 3 20 116 114 348 291 50 39 176 135 279
215 103 80 208 161 234 180 l46 35 1 78 0 77 78 0 c43 0 82 -4 87 -9 6 -6 59
28 140 91 72 56 209 162 305 237 96 74 204 158 240 185 l64 51 -167 3 -167 2
0 1205 0 1205 -655 0 -655 0 0 -680z m310 400 l0 -100 -85 0 -85 0 0 100 0
100 85 0 85 0 0 -100z m590 0 l0 -100 -85 0 -85 0 0 100 0 100 85 0 85 0 0
-100z m290 0 l0 -100 -85 0 -85 0 0 100 0 100 85 0 85 0 0 -100z m-880 -465
l0 -105 -85 0 -85 0 0 98 c0 54 3 102 7 105 3 4 42 7 85 7 l78 0 0 -105z m588
-2 l3 -103 -86 0 -85 0 0 105 0 106 83 -3 82 -3 3 -102z m-588 -463 l0 -100
-85 0 -85 0 0 100 0 100 85 0 85 0 0 -100z m290 0 l0 -100 -80 0 -80 0 0 100
0 100 80 0 80 0 0 -100z m300 0 l0 -100 -85 0 -85 0 0 100 0 100 85 0 85 0 0
-100z m-300 -470 l0 -100 -80 0 -80 0 0 100 0 100 80 0 80 0 0 -100z m590 0
l0 -101 -82 3 -83 3 -3 98 -3 97 86 0 85 0 0 -100z m-1910 -50 l0 -100 -60 0
-60 0 0 100 0 100 60 0 60 0 0 -100z m220 0 l0 -100 -60 0 -60 0 0 100 0 100
60 0 60 0 0 -100z m420 0 l0 -100 -60 0 -60 0 0 100 0 100 60 0 60 0 0 -100z
m388 -412 l-3 -103 -80 0 -80 0 -3 103 -3 102 86 0 86 0 -3 -102z m590 0 l-3
-103 -82 -3 -83 -3 0 106 0 105 85 0 86 0 -3 -102z m292 -3 l0 -106 -82 3 -83
3 -3 89 c-2 49 -1 95 2 103 4 9 28 13 86 13 l80 0 0 -105z m-1910 -30 l0 -106
-57 3 -58 3 -3 89 c-2 49 -1 95 2 103 4 9 24 13 61 13 l55 0 0 -105z m428 -2
l3 -103 -61 0 -60 0 0 105 0 106 58 -3 57 -3 3 -102z m212 2 l0 -105 -60 0
-60 0 0 98 c0 54 3 102 7 105 3 4 30 7 60 7 l53 0 0 -105z m390 -435 l0 -100
-85 0 -85 0 0 100 0 100 85 0 85 0 0 -100z m290 0 l0 -100 -80 0 -80 0 0 100
0 100 80 0 80 0 0 -100z m590 0 l0 -100 -85 0 -85 0 0 100 0 100 85 0 85 0 0
-100z m-1695 -15 l0 -100 -57 -3 -58 -3 0 106 0 106 58 -3 57 -3 0 -100z m425
0 l0 -106 -57 3 -58 3 -3 103 -3 102 61 0 60 0 0 -105z m-640 -445 l0 -100
-60 0 -60 0 0 100 0 100 60 0 60 0 0 -100z m430 0 l0 -100 -60 0 -60 0 0 100
0 100 60 0 60 0 0 -100z m890 -5 l0 -105 -80 0 -80 0 0 105 0 105 80 0 80 0 0
-105z m-1100 -445 l0 -100 -60 0 -60 0 0 100 0 100 60 0 60 0 0 -100z m210 0
l0 -100 -60 0 -60 0 0 100 0 100 60 0 60 0 0 -100z m600 -950 l0 -100 -85 0
-85 0 0 100 0 100 85 0 85 0 0 -100z"/>
<path d="M10214 10412 c-62 -48 -176 -136 -255 -197 -78 -60 -199 -154 -268
-208 -69 -53 -157 -121 -196 -151 -38 -30 -205 -158 -370 -286 -165 -127 -381
-294 -480 -371 -99 -76 -234 -180 -300 -231 l-120 -93 143 -3 142 -3 88 68
c265 205 536 414 677 523 860 666 1055 815 1065 815 5 0 102 -72 216 -160 114
-88 287 -221 383 -295 97 -75 316 -244 486 -376 171 -132 408 -315 527 -407
l217 -168 142 3 142 3 -219 170 c-120 93 -484 375 -809 625 -324 251 -619 478
-655 506 -36 27 -105 81 -155 119 -49 38 -129 100 -176 137 -47 37 -92 68
-100 67 -8 0 -64 -39 -125 -87z"/>
<path d="M10055 9979 c-148 -115 -353 -273 -454 -352 -102 -78 -266 -205 -366
-282 -99 -77 -256 -198 -348 -269 l-167 -129 0 -539 0 -538 119 0 c65 0 133 3
150 6 l31 7 0 263 0 264 290 0 290 0 0 -260 0 -260 175 0 175 0 0 355 0 355
390 0 390 0 0 -360 0 -360 144 0 c79 0 158 -3 175 -6 l31 -6 0 271 0 271 290
0 290 0 2 -160 3 -160 69 55 c37 30 104 87 147 126 l79 71 0 303 0 302 -227
176 c-284 218 -277 213 -518 399 -296 228 -317 245 -602 465 -145 112 -268
203 -275 203 -7 -1 -134 -95 -283 -211z m422 -225 c136 -65 214 -225 179 -365
-43 -170 -208 -281 -370 -249 -80 16 -121 38 -178 97 -67 68 -92 130 -92 223
0 59 6 87 26 130 27 59 92 131 142 158 89 46 204 49 293 6z"/>
<path d="M10212 9704 c-75 -37 -141 -127 -142 -191 0 -23 2 -23 120 -23 l120
0 0 120 c0 119 0 120 -23 120 -13 0 -46 -12 -75 -26z"/>
<path d="M10370 9610 l0 -120 120 0 c117 0 120 1 120 22 0 33 -38 104 -76 142
-38 38 -109 76 -142 76 -21 0 -22 -3 -22 -120z"/>
<path d="M10070 9407 c0 -67 82 -168 164 -202 75 -31 76 -30 76 105 l0 120
-120 0 c-119 0 -120 0 -120 -23z"/>
<path d="M10370 9310 c0 -118 0 -120 23 -120 85 1 217 134 217 218 0 21 -3 22
-120 22 l-120 0 0 -120z"/>
<path d="M9025 7664 c-55 -2 -253 -8 -440 -14 -1920 -60 -3788 -257 -5315
-560 -285 -56 -881 -188 -889 -196 -7 -6 12 -5 229 16 2713 258 6927 353
10610 240 1521 -47 2898 -125 4069 -231 183 -16 335 -28 337 -26 2 2 -28 11
-68 20 -40 9 -149 34 -243 56 -654 152 -1626 319 -2455 421 -1101 134 -2025
206 -3390 261 -236 10 -2219 20 -2445 13z"/>
<path d="M3680 6623 c-14 -2 -53 -13 -87 -24 -158 -51 -275 -178 -313 -339
-20 -84 -18 -417 4 -499 59 -225 255 -361 520 -361 269 1 502 168 523 375 8
80 0 85 -148 85 -65 0 -124 -3 -133 -6 -9 -3 -25 -27 -37 -53 -28 -64 -65 -99
-123 -116 -124 -37 -242 6 -284 105 -20 46 -29 325 -13 401 23 104 82 156 191
166 108 10 200 -42 231 -131 9 -23 23 -42 37 -47 13 -5 74 -9 136 -9 143 0
151 5 143 85 -22 213 -256 378 -531 374 -50 -1 -102 -4 -116 -6z"/>
<path d="M4880 6623 c-116 -19 -244 -92 -308 -176 -87 -114 -102 -176 -102
-429 0 -103 5 -211 11 -240 27 -127 117 -252 226 -311 76 -40 191 -67 292 -67
282 1 474 142 526 385 17 83 20 348 4 445 -30 190 -174 338 -371 385 -58 14
-217 18 -278 8z m237 -292 c43 -21 77 -67 94 -123 17 -57 13 -341 -5 -396 -36
-107 -140 -160 -261 -133 -70 16 -117 55 -142 119 -15 39 -18 77 -18 222 0
158 2 180 21 221 24 51 71 92 124 108 50 15 140 7 187 -18z"/>
<path d="M7254 6611 c-188 -51 -302 -171 -312 -329 -10 -157 52 -270 183 -332
39 -19 133 -46 244 -71 188 -42 239 -58 260 -83 19 -22 9 -67 -19 -87 -33 -25
-131 -42 -201 -36 -66 6 -109 26 -166 78 l-43 39 -139 0 c-131 0 -141 -1 -151
-20 -17 -31 13 -119 60 -178 91 -116 234 -179 426 -189 252 -13 469 83 537
237 28 62 34 172 13 243 -43 148 -144 210 -442 272 -209 43 -244 60 -244 119
0 41 22 61 83 77 93 23 204 -7 261 -70 18 -19 29 -21 162 -21 159 0 168 4 154
64 -26 116 -148 229 -299 277 -96 31 -271 36 -367 10z"/>
<path d="M11995 6620 c-181 -37 -323 -160 -376 -329 -18 -57 -21 -93 -21 -261
-1 -129 3 -214 12 -250 53 -226 226 -362 476 -377 257 -16 482 104 555 296 21
58 25 131 7 149 -12 12 -222 17 -264 6 -13 -3 -29 -22 -40 -47 -27 -63 -71
-105 -128 -122 -122 -36 -232 1 -278 95 -21 42 -23 58 -23 230 0 211 7 241 65
294 69 62 179 73 274 27 40 -20 52 -33 79 -87 19 -39 38 -65 51 -68 12 -3 73
-6 137 -6 138 0 144 4 137 83 -17 211 -255 379 -532 376 -50 -1 -109 -5 -131
-9z"/>
<path d="M14808 6615 c-129 -33 -257 -124 -310 -222 -55 -101 -63 -150 -63
-378 0 -175 3 -220 18 -270 68 -221 253 -344 518 -345 101 0 216 27 292 67
110 60 198 181 227 313 8 37 11 127 8 270 -4 207 -5 217 -31 280 -55 132 -159
227 -295 271 -87 28 -279 35 -364 14z m238 -270 c53 -15 90 -48 120 -105 17
-31 19 -59 19 -220 0 -173 -1 -188 -23 -232 -31 -63 -70 -94 -138 -109 -106
-24 -196 11 -246 96 -22 38 -23 48 -23 240 0 194 1 201 25 243 50 87 152 121
266 87z"/>
<path d="M5753 6603 c-18 -7 -19 -1153 -1 -1171 8 -8 54 -12 143 -12 89 0 135
4 143 12 9 9 12 91 12 307 0 253 2 293 14 281 8 -8 95 -137 195 -287 99 -149
190 -281 203 -292 19 -19 34 -21 138 -21 77 0 120 4 128 12 17 17 17 1149 0
1166 -18 18 -282 17 -297 -1 -7 -9 -12 -110 -13 -304 l-3 -290 -185 275 c-102
151 -196 288 -208 304 -24 28 -24 28 -140 27 -65 0 -123 -3 -129 -6z"/>
<path d="M8042 6598 c-19 -19 -16 -222 4 -242 13 -13 43 -16 175 -16 l159 0 0
-448 c0 -335 3 -451 12 -460 15 -15 265 -17 288 -2 13 8 15 72 18 460 l3 450
157 0 c110 0 162 4 170 12 13 13 17 212 6 242 -5 14 -58 16 -493 16 -365 0
-490 -3 -499 -12z"/>
<path d="M9207 6603 c-4 -3 -7 -266 -7 -583 0 -435 3 -579 12 -588 18 -18 272
-17 287 1 6 9 12 84 13 203 l3 189 76 3 77 3 97 -188 c54 -103 104 -196 113
-206 14 -16 32 -17 166 -15 143 3 151 4 154 23 1 11 -45 112 -103 225 -58 112
-105 205 -105 207 0 1 17 13 38 26 60 39 111 98 134 157 31 79 31 241 0 321
-30 75 -78 129 -150 167 -104 56 -153 62 -493 62 -168 0 -309 -3 -312 -7z
m610 -277 c37 -23 53 -54 53 -102 0 -96 -53 -124 -235 -124 l-125 0 0 118 c0
65 3 122 8 126 4 4 66 6 137 4 106 -2 136 -7 162 -22z"/>
<path d="M10382 6598 c-20 -20 -17 -736 4 -836 50 -242 249 -373 544 -359 255
13 424 140 469 355 16 77 15 824 -1 840 -8 8 -56 12 -150 12 l-138 0 -10 -26
c-6 -15 -10 -180 -10 -398 0 -366 0 -372 -22 -416 -41 -81 -128 -114 -234 -91
-62 14 -116 66 -133 128 -7 24 -11 178 -11 409 0 274 -3 373 -12 382 -8 8 -56
12 -148 12 -92 0 -140 -4 -148 -12z"/>
<path d="M12760 6591 c-5 -11 -10 -65 -10 -120 0 -77 4 -103 16 -115 13 -13
43 -16 175 -16 l159 0 0 -448 c0 -335 3 -451 12 -460 8 -8 56 -12 150 -12 126
0 138 2 148 19 6 13 10 176 10 460 l0 441 159 0 c123 0 161 3 170 14 8 9 11
54 9 132 l-3 119 -492 3 c-479 2 -492 2 -503 -17z"/>
<path d="M13932 6598 c-17 -17 -17 -1149 0 -1166 8 -8 56 -12 150 -12 126 0
138 2 148 19 13 26 14 1109 0 1145 l-10 26 -138 0 c-94 0 -142 -4 -150 -12z"/>
<path d="M15712 6598 c-17 -17 -17 -1149 0 -1166 18 -18 282 -17 297 1 7 9 12
111 13 307 l3 293 189 -284 c104 -156 198 -294 209 -306 19 -21 29 -23 137
-23 77 0 120 4 128 12 9 9 12 154 12 590 l0 578 -22 5 c-13 3 -81 4 -153 3
l-130 -3 -5 -305 -5 -305 -202 301 c-111 166 -209 304 -218 308 -31 11 -240 7
-253 -6z"/>
</g>
</svg>
